<?xml version="1.0" encoding="utf-8"?>
<!-- Generator: Adobe Illustrator 23.0.1, SVG Export Plug-In . SVG Version: 6.00 Build 0)  -->
<svg version="1.1" id="Layer_1" xmlns="http://www.w3.org/2000/svg" xmlns:xlink="http://www.w3.org/1999/xlink" x="0px" y="0px"
	 viewBox="0 0 131.2 130.6" style="enable-background:new 0 0 131.2 130.6;" xml:space="preserve">
<style type="text/css">
	.st0{fill:#FFFFFF;}
	.st1{fill:#FC0000;}
</style>
<g>
	<path class="st0" d="M37.7,95.8v-41h-5.6v-5.6c3.7-1.3,6.2-3.2,7.5-5.6h5.6v52.2H37.7z"/>
	<path class="st0" d="M63.8,96.3c-4.6,0-7.9-1.3-10-4c-2.1-2.6-3.1-6.5-3.1-11.4c0-3.2,0.4-5.8,1.3-7.8c0.9-2,2.3-3.6,4.3-4.8
		c-1.7-1.3-2.9-2.8-3.7-4.7c-0.8-1.8-1.2-4.2-1.2-6.9c0-4.3,1-7.6,3.1-10s5.1-3.6,9.2-3.6s7.1,1.2,9.2,3.6c2,2.4,3.1,5.7,3.1,10
		c0,2.8-0.4,5.1-1.2,6.9c-0.8,1.8-2,3.4-3.7,4.6c2,1.3,3.4,2.9,4.3,4.9s1.3,4.6,1.3,7.8c0,5-1,8.8-3.1,11.4
		C71.7,95,68.4,96.3,63.8,96.3z M61.3,89.7c0.7,0.3,1.5,0.5,2.5,0.5c1,0,1.8-0.2,2.5-0.5c0.7-0.3,1.2-0.8,1.6-1.3s0.7-1.2,0.9-2.1
		c0.2-0.9,0.4-1.7,0.4-2.5c0.1-0.8,0.1-1.8,0.1-2.9c0-1.2-0.1-2.4-0.2-3.3c-0.2-1-0.4-1.9-0.8-2.8s-1-1.6-1.7-2.1
		c-0.8-0.5-1.7-0.7-2.8-0.7s-2,0.2-2.8,0.7s-1.3,1.2-1.7,2.1s-0.7,1.8-0.8,2.8c-0.2,1-0.2,2.1-0.2,3.4c0,1.1,0,2.1,0.1,2.9
		s0.2,1.6,0.4,2.5s0.5,1.6,0.9,2.1S60.6,89.4,61.3,89.7z M63.8,64.9c1,0,1.8-0.2,2.4-0.7c0.6-0.4,1.1-1.1,1.4-1.9
		c0.3-0.8,0.5-1.7,0.6-2.5c0.1-0.9,0.2-1.9,0.2-3c0-5-1.6-7.5-4.7-7.5c-3.1,0-4.7,2.5-4.7,7.5c0,1.2,0.1,2.2,0.2,3
		c0.1,0.9,0.3,1.7,0.6,2.5s0.8,1.5,1.4,1.9C62,64.6,62.8,64.9,63.8,64.9z"/>
</g>
<g>
	<path class="st0" d="M90.6,71.1H82v-6.4h8.6v-8.6H97v8.6h8.6v6.4H97v8.6h-6.4V71.1z"/>
</g>
<path class="st1" d="M64.5,9.9C32.2,9.9,6.1,36.1,6.1,68.4s26.2,58.5,58.5,58.5S123,100.7,123,68.4S96.8,9.9,64.5,9.9z M64.5,114.1
	c-25.2,0-45.7-20.4-45.7-45.7s20.4-45.7,45.7-45.7c25.2,0,45.7,20.4,45.7,45.7S89.8,114.1,64.5,114.1z"/>
</svg>
