<?xml version="1.0" encoding="utf-8"?>
<!-- Generator: Adobe Illustrator 24.0.1, SVG Export Plug-In . SVG Version: 6.00 Build 0)  -->
<svg version="1.1" id="Capa_1" xmlns="http://www.w3.org/2000/svg" xmlns:xlink="http://www.w3.org/1999/xlink" x="0px" y="0px"
	 viewBox="0 0 511.6 511.6" style="enable-background:new 0 0 511.6 511.6;" xml:space="preserve">
<style type="text/css">
	.st0{fill:#727272;}
</style>
<path class="st0" d="M495.9,83.2c-7.7-7.2-16.8-10.8-27.3-10.7l-38.7,0.1l-0.1-27.4c0-12.6-4.8-23.3-14.3-32.3
	C406,4.1,394.6-0.4,381.2-0.4l-19.4,0.1c-13.4,0-24.7,4.6-34.2,13.5c-9.4,8.9-14.2,19.7-14.1,32.3l0.1,27.4l-116.2,0.3l-0.1-27.4
	c0-12.6-4.8-23.3-14.3-32.3C173.4,4.8,162,0.3,148.6,0.3l-19.4,0.1C115.9,0.4,104.5,5,95,13.9c-9.4,8.9-14.2,19.7-14.1,32.3L81,73.6
	l-38.7,0.1c-10.5,0-19.6,3.7-27.2,10.9c-7.6,7.2-11.5,15.8-11.5,25.7l1.1,365.5c0,9.9,3.9,18.5,11.6,25.7
	c7.7,7.2,16.8,10.8,27.3,10.7l426.4-1.3c10.5,0,19.6-3.7,27.2-10.9c7.6-7.2,11.5-15.8,11.5-25.7l-1.1-365.5
	C507.5,99,503.6,90.5,495.9,83.2z M130.6,475.5l-87.2,0.3l-0.2-82.2l87.2-0.3L130.6,475.5z M130.3,375l-87.2,0.3l-0.3-91.4l87.2-0.3
	L130.3,375z M130,265.4l-87.2,0.3l-0.2-82.2l87.2-0.3L130,265.4z M122.8,134.7c-1.9-1.8-2.9-3.9-2.9-6.4l-0.2-82.2
	c0-2.5,0.9-4.6,2.8-6.4c1.9-1.8,4.1-2.7,6.8-2.7l19.4-0.1c2.7,0,4.9,0.9,6.8,2.7c1.9,1.8,2.9,3.9,2.9,6.4l0.2,82.2
	c0,2.5-0.9,4.6-2.8,6.4c-1.9,1.8-4.1,2.7-6.8,2.7l-19.4,0.1C127.1,137.4,124.8,136.5,122.8,134.7z M247,475.1l-96.9,0.3l-0.2-82.2
	l96.9-0.3L247,475.1L247,475.1z M246.7,374.6l-96.9,0.3l-0.3-91.4l96.9-0.3L246.7,374.6L246.7,374.6z M246.4,265l-96.9,0.3
	l-0.2-82.2l96.9-0.3L246.4,265L246.4,265z M363.2,474.8l-96.8,0.3l-0.2-82.2l96.9-0.3l0.2,82.2L363.2,474.8z M362.9,374.3l-96.8,0.3
	l-0.3-91.4l96.9-0.3l0.3,91.4L362.9,374.3z M362.6,264.7l-96.8,0.3l-0.2-82.2l96.9-0.3l0.2,82.2L362.6,264.7z M355.4,134
	c-1.9-1.8-2.9-3.9-2.9-6.4l-0.2-82.2c0-2.5,0.9-4.6,2.8-6.4c1.9-1.8,4.1-2.7,6.8-2.7l19.4-0.1c2.7,0,4.9,0.9,6.8,2.7
	c1.9,1.8,2.9,3.9,2.9,6.4l0.2,82.2c0,2.5-0.9,4.6-2.8,6.4c-1.9,1.8-4.1,2.7-6.8,2.7l-19.4,0.1C359.6,136.7,357.4,135.8,355.4,134z
	 M469.8,474.5l-87.2,0.3l-0.2-82.2l87.2-0.3L469.8,474.5z"/>
</svg>
