<?xml version="1.0" encoding="utf-8"?>
<!-- Generator: Adobe Illustrator 24.0.1, SVG Export Plug-In . SVG Version: 6.00 Build 0)  -->
<svg version="1.1" id="Layer_1" xmlns="http://www.w3.org/2000/svg" xmlns:xlink="http://www.w3.org/1999/xlink" x="0px" y="0px"
	 viewBox="0 0 262.7 42.6" style="enable-background:new 0 0 262.7 42.6;" xml:space="preserve">
<style type="text/css">
	.st0{display:none;fill:#141414;}
	.st1{fill:#FFFFFF;}
	.st2{fill:#29E1E7;}
	.st3{display:none;}
	.st4{display:inline;fill:#FFFFFF;}
	.st5{display:inline;fill:#F9F9F9;}
</style>
<rect class="st0" width="263" height="42.9"/>
<path class="st1" d="M1,30.8V10c0-4.2,3.4-7.5,7.5-7.5h19.1c4.2,0,7.5,3.4,7.5,7.5v20.8c0,4.2-3.4,7.5-7.5,7.5H8.5
	C4.3,38.3,1,34.9,1,30.8z"/>
<path d="M27.4,37.2H8.6C5,37.2,2,34.3,2,30.6V10.1C2,6.4,5,3.5,8.6,3.5h18.8c3.7,0,6.6,2.9,6.6,6.6v20.5
	C34,34.3,31.1,37.2,27.4,37.2z"/>
<path class="st1" d="M8.6,14.1h6v19.7h-6V14.1z"/>
<rect x="8.6" y="7.2" class="st1" width="6" height="5.5"/>
<path class="st2" d="M19.7,7.2H16v5.5h3.9c3.4,0,5.2,2.5,5.2,5.1c0,2.4-1.4,4.8-4.6,4.8H16v5.5h3.6c7.9,0,11.9-4.5,11.9-10.3
	C31.6,11.9,27.1,7.2,19.7,7.2z"/>
<g class="st3">
	<rect x="41.8" y="10.4" class="st4" width="6.8" height="25.2"/>
	<polygon class="st4" points="56.9,23.2 56.9,35.6 50.2,35.6 50.2,8.6 66.3,22.9 66.3,10.4 73.1,10.4 73.1,37.3 	"/>
	<path class="st4" d="M74.4,35.6V10.4h10.6c3.6,0,6.8,1.1,9.2,3.2c2.6,2.2,4,5.5,4,9.4c0,3.8-1.4,7.2-4,9.5c-2.3,2-5.5,3.2-9.2,3.2
		H74.4z M84.9,29.4c4.2,0,6.3-2.1,6.3-6.5s-2-6.5-6.3-6.5h-3.8v12.9L84.9,29.4L84.9,29.4z"/>
	<path class="st4" d="M110.5,36C103.1,36,97,30.2,97,23s6.1-13,13.5-13c7.5,0,13.5,5.9,13.5,13C124.1,30.2,118,36,110.5,36z
		 M110.5,16.2c-3.6,0-6.7,3.1-6.7,6.7c0,3.7,3.1,6.8,6.7,6.8c3.6,0,6.7-3.1,6.7-6.8C117.2,19.3,114.2,16.2,110.5,16.2z"/>
	<path class="st4" d="M124.1,35.6V10.4h10.4c6.1,0,10.3,3.8,10.3,9.3c0,5.5-4.1,9.1-10.4,9.1h-3.6v6.9H124.1z M135.2,22.6
		c2.1,0,2.8-1.5,2.8-3c0-1.5-1.1-3.2-3.3-3.2h-3.8v6.1L135.2,22.6L135.2,22.6z"/>
	<path class="st4" d="M158.3,35.6l-0.3-0.3c-1.8-2.3-3.5-4.5-5.4-7h-2.2v7.3h-6.7V10.4H155c5.5,0,9.3,3.7,9.3,9
		c0,3.3-1.6,6.2-4.3,7.7c1.8,2.3,3.8,4.9,5.4,7.1l1,1.4C166.5,35.6,158.3,35.6,158.3,35.6z M155,22.1c1.1,0,2.6-0.7,2.6-2.8
		c0-1.1-0.3-2.9-2.6-2.9h-4.6v5.7H155z"/>
	<path class="st4" d="M177,36c-7.4,0-13.5-5.9-13.5-13.1s6.1-13,13.5-13c7.5,0,13.5,5.9,13.5,13C190.6,30.2,184.5,36,177,36z
		 M177,16.2c-3.6,0-6.7,3.1-6.7,6.7c0,3.7,3.1,6.8,6.7,6.8c3.6,0,6.7-3.1,6.7-6.8C183.8,19.3,180.7,16.2,177,16.2z"/>
	<polygon class="st4" points="190.6,35.6 190.6,10.4 210.1,10.4 210.1,16.5 197.4,16.5 197.4,19.9 208.6,19.9 208.6,26 197.4,26 
		197.4,35.6 	"/>
	<rect x="210.3" y="10.4" class="st4" width="6.8" height="25.2"/>
	<polygon class="st4" points="218.6,35.6 218.6,10.4 225.4,10.4 225.4,29.4 237.7,29.4 237.7,35.6 	"/>
	<polygon class="st5" points="237,35.6 237,10.3 253.1,10.3 253.1,16.4 242.8,16.4 242.8,19.9 251.9,19.9 251.9,26.1 242.8,26.1 
		242.8,29.4 253.1,29.4 253.1,35.6 	"/>
</g>
<g>
	<path class="st1" d="M40.3,33V8.2h5.4V33H40.3z"/>
	<path class="st1" d="M54.4,33h-5.3V7.4l17.1,15.2V8.2h5.4v25.6L54.4,18.9V33z"/>
	<path class="st1" d="M74.7,8.2H85c3.7,0,6.8,1.1,9.1,3.1c2.6,2.2,3.9,5.4,3.9,9.3s-1.4,7.1-3.9,9.4C91.8,32,88.6,33,85,33H74.7V8.2
		L74.7,8.2z M85,28.4c3.4,0,7.5-1.2,7.5-7.8s-4.2-7.8-7.5-7.8h-4.9v15.5L85,28.4L85,28.4z"/>
	<path class="st1" d="M98.7,20.6c0-7.1,6-12.9,13.4-12.9c7.4,0,13.4,5.8,13.4,12.9c0,7.1-6,12.9-13.4,12.9
		C104.6,33.5,98.7,27.7,98.7,20.6z M104,20.6c0,4.3,3.6,8.1,8,8.1c4.5,0,8-3.8,8-8.1c0-4.2-3.6-8-8-8C107.6,12.6,104,16.3,104,20.6z
		"/>
	<path class="st2" d="M147.4,17.1c0,4.9-3.4,8.7-10,8.7h-4.7V33h-5.4V8.2h10.1C143.6,8.2,147.4,12.2,147.4,17.1z M142,17.1
		c0-2.1-1.5-4.2-4.4-4.2h-4.9v8.3h5.5C140.8,21.1,142,19.1,142,17.1z"/>
	<path class="st2" d="M148.1,33V8.2h11c5.3,0,9,3.5,9,8.6c0,3.6-2,6.6-5.1,7.9c2.1,2.7,4.4,5.7,6.4,8.3H163c-2-2.6-3.9-5-6-7.8h-3.7
		V33H148.1z M159.1,20.6c1.7,0,3.6-1.2,3.6-3.8c0-1.3-0.5-4-3.6-4h-5.7v7.8H159.1z"/>
	<path class="st2" d="M169,20.6c0-7.1,6-12.9,13.4-12.9c7.4,0,13.4,5.8,13.4,12.9c0,7.1-6,12.9-13.4,12.9
		C175,33.5,169,27.7,169,20.6z M174.4,20.6c0,4.3,3.6,8.1,8,8.1c4.5,0,8-3.8,8-8.1c0-4.2-3.6-8-8-8C178,12.6,174.4,16.3,174.4,20.6z
		"/>
	<path class="st2" d="M203,18.3h11.9V23H203v10h-5.4V8.2h18.8v4.7H203V18.3z"/>
	<path class="st2" d="M218.4,33V8.2h5.4V33H218.4z"/>
	<path class="st2" d="M245.7,33h-18.4V8.2h5.4v20.2h13L245.7,33L245.7,33z"/>
	<path class="st2" d="M251,18.3h9.6V23H251v5.3h10.9V33h-15.2V8.1h15.2v4.7H251V18.3z"/>
</g>
</svg>
