<?xml version="1.0" encoding="utf-8"?>
<!-- Generator: Adobe Illustrator 24.0.1, SVG Export Plug-In . SVG Version: 6.00 Build 0)  -->
<svg version="1.1" id="Layer_1" xmlns="http://www.w3.org/2000/svg" xmlns:xlink="http://www.w3.org/1999/xlink" x="0px" y="0px"
	 viewBox="0 0 64 64" style="enable-background:new 0 0 64 64;" xml:space="preserve">
<style type="text/css">
	.st0{fill:#FFA300;}
</style>
<g>
	<g id="circle_x5F_bg_10_">
		<path class="st0" d="M32,64C14.4,64,0,49.6,0,32S14.4,0,32,0s32,14.4,32,32S49.6,64,32,64z M32,4C16.6,4,4,16.6,4,32
			s12.6,28,28,28s28-12.6,28-28S47.4,4,32,4z"/>
	</g>
	<g>
		<g>
			<path class="st0" d="M22,38.5c-2.5,0-4.5,2-4.5,4.5s2,4.5,4.5,4.5s4.5-2,4.5-4.5S24.5,38.5,22,38.5z"/>
		</g>
		<g>
			<path class="st0" d="M18,26.5h-0.5v5.7H18c8.2,0,14.8,6.6,14.8,14.8v0.5h5.7V47C38.5,35.7,29.3,26.5,18,26.5z"/>
		</g>
		<g>
			<path class="st0" d="M18,14.5h-0.5v5.7H18c14.8,0,26.8,12,26.8,26.8v0.5h5.7V47C50.5,29.1,35.9,14.5,18,14.5z"/>
		</g>
	</g>
</g>
</svg>
