<?xml version="1.0" encoding="utf-8"?>
<!-- Generator: Adobe Illustrator 24.0.1, SVG Export Plug-In . SVG Version: 6.00 Build 0)  -->
<svg version="1.1" id="Layer_1" focusable="false" xmlns="http://www.w3.org/2000/svg" xmlns:xlink="http://www.w3.org/1999/xlink"
	 x="0px" y="0px" viewBox="0 0 512 512" style="enable-background:new 0 0 512 512;" xml:space="preserve">
<style type="text/css">
	.st0{fill:#727272;}
</style>
<path class="st0" d="M0,194.5V37C0,16.6,16.6,0,37,0h157.5c9.8,0,19.2,3.9,26.2,10.8l278.7,278.7c14.5,14.5,14.5,37.9,0,52.4
	L341.9,499.4c-14.5,14.5-37.9,14.5-52.4,0L10.8,220.7C3.9,213.7,0,204.3,0,194.5z M86.4,49.4c-20.5,0-37,16.6-37,37s16.6,37,37,37
	s37-16.6,37-37S106.9,49.4,86.4,49.4z"/>
</svg>
